<?xml version="1.0" encoding="utf-8"?>
<!-- Generator: Adobe Illustrator 19.1.0, SVG Export Plug-In . SVG Version: 6.00 Build 0)  -->
<!DOCTYPE svg PUBLIC "-//W3C//DTD SVG 1.1//EN" "http://www.w3.org/Graphics/SVG/1.1/DTD/svg11.dtd">
<svg version="1.1" id="CONTENT" xmlns="http://www.w3.org/2000/svg" xmlns:xlink="http://www.w3.org/1999/xlink" x="0px" y="0px"
	 viewBox="0 0 418 648" style="enable-background:new 0 0 418 648;" xml:space="preserve">
<style type="text/css">
	.bg{display:inline;fill:#204056;}
	.st0{fill:none;stroke:#FFFFFF;stroke-miterlimit:10;}
	.st1{fill:#FFFFFF;}
	.st2{fill:#52B1DB;}
	.st3{fill:none;stroke:#52B1DB;stroke-miterlimit:10;}
	.st4{opacity:0.25;fill:#FFFFFF;}
</style>
<g>
<rect class="bg" width="418" height="648"/>	
<g>
	<path class="st1" d="M162.9,65.2c-0.8,0-1.5-0.1-2.2-0.3s-1.2-0.5-1.7-0.9s-0.9-0.9-1.2-1.4s-0.6-1.2-0.8-1.8
		c-0.2-0.7-0.2-1.4-0.2-2.1c0-1.3,0.2-2.5,0.7-3.5s1.2-1.8,2.2-2.4c1-0.6,2.1-0.9,3.5-0.9c1.5,0,2.8,0.3,3.9,1l-0.5,0.9
		c-0.5-0.3-1-0.5-1.6-0.7c-0.6-0.2-1.2-0.3-1.8-0.3c-0.9,0-1.6,0.2-2.3,0.5c-0.7,0.3-1.2,0.7-1.6,1.3s-0.7,1.2-0.9,1.9
		s-0.3,1.5-0.3,2.3c0,0.9,0.1,1.7,0.3,2.4s0.5,1.3,1,1.8s1,0.9,1.7,1.2s1.5,0.4,2.4,0.4c0.9,0,1.9-0.2,3-0.7v-4.2h-3.2l0.1-1h4.2
		v5.8c-0.7,0.4-1.4,0.6-2.1,0.8S163.8,65.2,162.9,65.2z"/>
	<path class="st1" d="M170,53.4v-1.5h1.1v1.5H170z M170,65v-9.6h1.1V65H170z"/>
	<path class="st1" d="M176.5,65.2c-0.8,0-1.4-0.2-1.8-0.5s-0.6-1-0.6-1.8v-6.7h-1.4l0.1-0.7l1.3-0.1l0.3-2.2l0.8-0.1v2.2h2.8v0.8
		h-2.8v6.5c0,0.7,0.1,1.1,0.3,1.4s0.6,0.3,1.2,0.3c0.4,0,0.8-0.1,1.4-0.2l0,0.8C177.4,65.1,176.9,65.2,176.5,65.2z"/>
	<path class="st1" d="M184.1,65V51.9h3.6c1.6,0,2.8,0.3,3.6,0.8c0.7,0.5,1.1,1.4,1.1,2.5c0,0.1,0,0.2,0,0.3c0,0.1,0,0.2,0,0.4
		s-0.1,0.4-0.1,0.5s-0.1,0.3-0.2,0.5s-0.2,0.4-0.4,0.5c-0.1,0.1-0.3,0.3-0.6,0.4s-0.5,0.3-0.8,0.4c0.9,0.1,1.6,0.5,2.1,1.1
		s0.7,1.3,0.7,2.1c0,1.2-0.4,2.1-1.1,2.7s-1.9,1-3.4,1H184.1z M185.2,57.7h3c0.5,0,0.9,0,1.2-0.1s0.6-0.2,0.9-0.4
		c0.3-0.2,0.5-0.4,0.6-0.8s0.2-0.7,0.2-1.2c0-0.9-0.3-1.5-0.8-1.9c-0.6-0.4-1.5-0.5-2.7-0.5h-2.4V57.7z M185.2,64.1h3
		c2.4,0,3.6-0.9,3.6-2.8c0-1-0.3-1.7-1-2.1s-1.7-0.6-3.1-0.6h-2.5V64.1z"/>
	<path class="st1" d="M194.9,65c0-5.7,0-8.9,0-9.6h0.9l0.1,1.9c0.3-0.6,0.8-1,1.3-1.4s1.1-0.5,1.7-0.5c0.2,0,0.5,0,0.8,0.1l-0.1,0.9
		c-0.2,0-0.4-0.1-0.7-0.1c-0.8,0-1.5,0.3-2.1,1c-0.6,0.6-0.8,1.4-0.8,2.3V65H194.9z"/>
	<path class="st1" d="M203.7,65.2c-0.9,0-1.6-0.2-2.2-0.7s-0.8-1.1-0.8-2c0-0.5,0.1-0.9,0.3-1.3s0.5-0.7,0.9-0.9
		c0.4-0.2,0.9-0.4,1.4-0.5s1.1-0.2,1.9-0.3c0.8,0,1.3-0.1,1.7-0.1v-1.1c0-0.7-0.2-1.3-0.5-1.7c-0.3-0.4-0.9-0.6-1.6-0.6
		c-1,0-2,0.2-2.9,0.7c0-0.1-0.1-0.2-0.2-0.4c-0.1-0.2-0.1-0.3-0.2-0.5c0.4-0.2,0.8-0.4,1.4-0.6s1.2-0.2,1.7-0.2c1.2,0,2,0.2,2.5,0.7
		s0.8,1.4,0.8,2.6V65h-0.9c0-0.1-0.1-0.4-0.1-0.8s-0.1-0.6-0.1-0.6C206.1,64.7,205.1,65.2,203.7,65.2z M203.7,64.3
		c0.8,0,1.4-0.2,2-0.7c0.6-0.4,1-1.1,1.1-1.8v-1.6c-0.8,0.1-1.3,0.1-1.3,0.1c-1.4,0.1-2.4,0.4-3,0.7s-0.8,0.9-0.8,1.6
		c0,0.6,0.2,1,0.5,1.3C202.7,64.2,203.1,64.3,203.7,64.3z"/>
	<path class="st1" d="M210.6,65v-9.6h0.9l0.1,1.5c0.3-0.5,0.8-0.9,1.4-1.2s1.2-0.4,1.9-0.4c1.1,0,1.9,0.3,2.4,0.9s0.8,1.6,0.8,2.9v6
		h-1.1v-6.5c0-0.9-0.2-1.5-0.5-1.8s-0.9-0.6-1.6-0.6c-0.9,0-1.6,0.2-2.1,0.7c-0.6,0.4-0.9,1-1,1.7c0,0.3,0,0.6,0,0.9V65H210.6z"/>
	<path class="st1" d="M224.7,65.2c-0.9,0-1.7-0.2-2.4-0.7s-1.2-1.1-1.5-1.8s-0.5-1.6-0.5-2.5c0-0.7,0.1-1.3,0.3-2s0.5-1.1,0.8-1.6
		c0.4-0.5,0.8-0.8,1.4-1.1s1.2-0.4,1.9-0.4c0.5,0,0.9,0.1,1.4,0.2c0.5,0.1,0.8,0.3,1,0.4l-0.3,0.8c-0.6-0.3-1.3-0.5-2.1-0.5
		c-1,0-1.8,0.4-2.4,1.1s-0.9,1.8-0.9,3c0,1.2,0.3,2.2,0.9,2.9c0.6,0.7,1.4,1.1,2.4,1.1c0.7,0,1.5-0.2,2.3-0.5l0.2,0.8
		c-0.3,0.2-0.6,0.4-1.1,0.5S225.1,65.2,224.7,65.2z"/>
	<path class="st1" d="M229.2,65V51.6l1.1-0.1v4.6c0,0.1,0,0.2,0,0.3s0,0.1,0,0.1s0,0,0,0.1c0,0.1,0,0.1,0,0.3
		c0.8-1.1,1.9-1.6,3.4-1.6c2.1,0,3.1,1.3,3.1,3.8v6h-1.1v-5.8c0-1.1-0.2-1.9-0.5-2.4s-0.9-0.7-1.8-0.7c-0.8,0-1.5,0.2-2.1,0.7
		s-0.9,1-1,1.7c0,0.2,0,0.6,0,1V65H229.2z"/>
	<path class="st1" d="M239.4,53.4v-1.5h1.1v1.5H239.4z M239.4,65v-9.6h1.1V65H239.4z"/>
	<path class="st1" d="M243.2,65v-9.6h0.9l0.1,1.5c0.3-0.5,0.8-0.9,1.4-1.2s1.2-0.4,1.9-0.4c1.1,0,1.9,0.3,2.4,0.9s0.8,1.6,0.8,2.9v6
		h-1.1v-6.5c0-0.9-0.2-1.5-0.5-1.8s-0.9-0.6-1.6-0.6c-0.9,0-1.6,0.2-2.1,0.7c-0.6,0.4-0.9,1-1,1.7c0,0.3,0,0.6,0,0.9V65H243.2z"/>
	<path class="st1" d="M254.8,69.5l-0.1-1h2c0.5,0,0.8,0,1.2-0.1s0.6-0.2,0.9-0.3c0.2-0.1,0.4-0.3,0.6-0.5c0.2-0.2,0.3-0.4,0.4-0.7
		s0.2-0.5,0.2-0.9s0.1-0.7,0.1-1s0-0.7,0-1.1c0,0.1,0,0,0,0l0-0.6c-0.4,0.6-0.8,1-1.3,1.3s-1.1,0.5-1.8,0.5c-0.6,0-1.1-0.1-1.6-0.3
		s-0.9-0.5-1.2-0.8s-0.6-0.7-0.8-1.1s-0.4-0.8-0.4-1.3s-0.1-0.8-0.1-1.2c0-0.5,0-1,0.1-1.5c0.1-0.5,0.2-0.9,0.4-1.4s0.5-0.8,0.8-1.2
		s0.7-0.6,1.2-0.8s1.1-0.3,1.7-0.3c0.6,0,1.2,0.1,1.6,0.4s0.9,0.6,1.3,1.2l0.1-1.4h1v8.9c0,0.4,0,0.7,0,0.9c0,0.2,0,0.6-0.1,1
		c-0.1,0.4-0.1,0.7-0.3,1c-0.1,0.3-0.3,0.5-0.5,0.9s-0.5,0.6-0.8,0.7c-0.3,0.2-0.7,0.3-1.2,0.5s-1,0.2-1.7,0.2H254.8z M257,64.1
		c0.4,0,0.8-0.1,1.2-0.2s0.6-0.3,0.9-0.5s0.4-0.5,0.6-0.8c0.2-0.3,0.3-0.6,0.3-0.9s0.1-0.7,0.1-1v-1c0-0.5-0.1-0.9-0.2-1.3
		s-0.3-0.8-0.5-1.1s-0.5-0.6-1-0.8s-0.9-0.3-1.4-0.3c-0.4,0-0.8,0.1-1.2,0.3s-0.6,0.4-0.9,0.7s-0.4,0.6-0.6,1s-0.3,0.7-0.3,1.1
		c-0.1,0.4-0.1,0.8-0.1,1.2c0,0.4,0,0.7,0.1,1c0.1,0.3,0.2,0.7,0.3,1c0.1,0.3,0.3,0.6,0.5,0.9s0.5,0.5,0.9,0.6
		C256.1,64,256.6,64.1,257,64.1z"/>
</g>
<g>
	<path class="st1" d="M289.9,290.5v-11.6h1.4l4.3,9.8l4.2-9.8h1.4v11.6h-1v-7.8l0.1-2.6l-0.3,0.9l-3.8,8.9H295l-3.9-8.9l-0.3-0.9
		l0.1,2.7v7.8H289.9z"/>
	<path class="st1" d="M306,290.7c-0.8,0-1.5-0.2-1.9-0.6s-0.7-1-0.7-1.7c0-0.4,0.1-0.8,0.3-1.2c0.2-0.3,0.5-0.6,0.8-0.8
		c0.4-0.2,0.8-0.4,1.3-0.5c0.5-0.1,1-0.2,1.6-0.2c0.7,0,1.2-0.1,1.5-0.1v-1c0-0.7-0.1-1.1-0.4-1.5c-0.3-0.3-0.8-0.5-1.4-0.5
		c-0.9,0-1.8,0.2-2.5,0.6c0-0.1-0.1-0.2-0.1-0.3c-0.1-0.2-0.1-0.3-0.2-0.4c0.3-0.2,0.7-0.4,1.3-0.5s1-0.2,1.5-0.2
		c1,0,1.8,0.2,2.2,0.7c0.4,0.4,0.7,1.2,0.7,2.3v5.7h-0.8c0-0.1-0.1-0.4-0.1-0.7c0-0.4-0.1-0.5-0.1-0.5
		C308.2,290.2,307.3,290.7,306,290.7z M306.1,289.9c0.7,0,1.3-0.2,1.8-0.6c0.5-0.4,0.9-0.9,1-1.6v-1.5c-0.8,0.1-1.1,0.1-1.1,0.1
		c-1.3,0.1-2.2,0.3-2.6,0.6c-0.5,0.3-0.7,0.8-0.7,1.4c0,0.5,0.2,0.9,0.5,1.2C305.1,289.8,305.5,289.9,306.1,289.9z"/>
	<path class="st1" d="M314.7,290.7c-0.6,0-1.1-0.1-1.6-0.2s-0.9-0.3-1.1-0.5l0.1-0.8c0.9,0.4,1.7,0.7,2.5,0.7c1.4,0,2.1-0.5,2.2-1.6
		c0-0.4-0.1-0.8-0.4-1s-0.9-0.5-1.7-0.8c-0.4-0.2-0.7-0.2-0.7-0.3c-1.3-0.4-2-1.1-2-2.2c0-0.6,0.3-1.1,0.8-1.6s1.2-0.7,2.1-0.7
		s1.7,0.2,2.5,0.5L317,283c-0.8-0.3-1.5-0.5-2.2-0.5c-0.6,0-1.1,0.1-1.4,0.4c-0.3,0.3-0.5,0.6-0.5,1.1c0,0.4,0.1,0.7,0.3,0.9
		c0.2,0.2,0.7,0.4,1.3,0.6c0.1,0,0.2,0.1,0.4,0.1c0.2,0.1,0.3,0.1,0.3,0.1c0.9,0.3,1.5,0.6,1.9,1c0.4,0.4,0.5,0.9,0.5,1.5
		c0,0.8-0.3,1.3-0.8,1.7C316.3,290.5,315.6,290.7,314.7,290.7z"/>
	<path class="st1" d="M321.9,290.7c-0.7,0-1.2-0.2-1.6-0.5s-0.5-0.9-0.5-1.6v-6h-1.2l0.1-0.6l1.2-0.1l0.3-2l0.7,0v2h2.5v0.7h-2.5
		v5.8c0,0.6,0.1,1,0.3,1.2c0.2,0.2,0.5,0.3,1,0.3c0.3,0,0.7-0.1,1.2-0.2l0,0.8C322.8,290.6,322.3,290.7,321.9,290.7z"/>
	<path class="st1" d="M328.3,290.7c-1.2,0-2.1-0.4-2.8-1.2c-0.7-0.8-1-1.9-1-3.2c0-1.3,0.3-2.4,1-3.2c0.7-0.8,1.6-1.3,2.6-1.3
		c1,0,1.8,0.4,2.4,1.1s0.9,1.7,0.9,2.9c0,0,0,0.1,0,0.3c0,0.1,0,0.2,0,0.3h-6c0,1.1,0.3,2,0.8,2.6c0.5,0.6,1.2,1,2.1,1
		c0.6,0,1-0.1,1.5-0.2c0.4-0.1,0.8-0.3,1.3-0.6l0.2,0.7C330.3,290.4,329.4,290.7,328.3,290.7z M325.5,285.6h4.9c0-1-0.2-1.7-0.6-2.2
		s-1-0.8-1.7-0.8c-0.7,0-1.3,0.3-1.8,0.8C325.8,284,325.6,284.7,325.5,285.6z"/>
	<path class="st1" d="M333.4,290.5c0-5,0-7.9,0-8.6h0.8l0.1,1.7c0.3-0.5,0.7-0.9,1.2-1.2c0.5-0.3,1-0.5,1.5-0.5c0.2,0,0.4,0,0.7,0.1
		l-0.1,0.8c-0.2,0-0.4,0-0.6,0c-0.7,0-1.3,0.3-1.8,0.9s-0.7,1.2-0.7,2v4.9H333.4z"/>
</g>
<g>
	<path class="st2" d="M75.3,169.5v-11.6h6.2l0,0.9h-5.2v4.6h5v0.8h-5v5.4H75.3z"/>
	<path class="st2" d="M86.4,169.7c-1.2,0-2.1-0.4-2.8-1.2c-0.7-0.8-1-1.9-1-3.2c0-1.3,0.3-2.4,1-3.2c0.7-0.8,1.6-1.3,2.6-1.3
		c1,0,1.8,0.4,2.4,1.1s0.9,1.7,0.9,2.9c0,0,0,0.1,0,0.3c0,0.1,0,0.2,0,0.3h-6c0,1.1,0.3,2,0.8,2.6c0.5,0.6,1.2,1,2.1,1
		c0.6,0,1-0.1,1.5-0.2c0.4-0.1,0.8-0.3,1.3-0.6l0.2,0.7C88.5,169.4,87.5,169.7,86.4,169.7z M83.6,164.6h4.9c0-1-0.2-1.7-0.6-2.2
		s-1-0.8-1.7-0.8c-0.7,0-1.3,0.3-1.8,0.8C84,163,83.7,163.7,83.6,164.6z"/>
	<path class="st2" d="M91.5,169.5v-8.6h0.8l0.1,1.3c0.3-0.5,0.7-0.8,1.2-1.1c0.5-0.3,1.1-0.4,1.7-0.4c1,0,1.7,0.3,2.2,0.8
		c0.5,0.5,0.7,1.4,0.7,2.6v5.3h-1v-5.8c0-0.8-0.2-1.3-0.5-1.6c-0.3-0.3-0.8-0.5-1.5-0.5c-0.8,0-1.4,0.2-1.9,0.6s-0.8,0.9-0.9,1.5
		c0,0.2,0,0.5,0,0.8v5H91.5z"/>
	<path class="st2" d="M104,169.7c-0.8,0-1.5-0.2-2.2-0.6s-1.1-0.9-1.4-1.6c-0.3-0.7-0.4-1.4-0.4-2.2c0-0.6,0.1-1.2,0.3-1.7
		c0.2-0.5,0.4-1,0.8-1.4c0.3-0.4,0.7-0.7,1.3-1s1.1-0.4,1.7-0.4c0.4,0,0.8,0.1,1.2,0.2s0.7,0.2,0.9,0.4l-0.3,0.7
		c-0.5-0.3-1.2-0.5-1.9-0.5c-0.9,0-1.6,0.3-2.1,1c-0.5,0.7-0.8,1.6-0.8,2.7c0,1.1,0.3,1.9,0.8,2.6c0.5,0.7,1.2,1,2.1,1
		c0.6,0,1.3-0.2,2-0.5l0.1,0.7c-0.2,0.2-0.6,0.3-1,0.4S104.4,169.7,104,169.7z"/>
	<path class="st2" d="M108.1,159.2v-1.3h1v1.3H108.1z M108.1,169.5v-8.6h1v8.6H108.1z"/>
	<path class="st2" d="M111.5,169.5v-8.6h0.8l0.1,1.3c0.3-0.5,0.7-0.8,1.2-1.1c0.5-0.3,1.1-0.4,1.7-0.4c1,0,1.7,0.3,2.2,0.8
		c0.5,0.5,0.7,1.4,0.7,2.6v5.3h-1v-5.8c0-0.8-0.2-1.3-0.5-1.6c-0.3-0.3-0.8-0.5-1.5-0.5c-0.8,0-1.4,0.2-1.9,0.6s-0.8,0.9-0.9,1.5
		c0,0.2,0,0.5,0,0.8v5H111.5z"/>
	<path class="st2" d="M121.8,173.5l-0.1-0.9h1.8c0.4,0,0.8,0,1.1-0.1s0.6-0.2,0.8-0.3c0.2-0.1,0.4-0.3,0.5-0.5
		c0.1-0.2,0.3-0.4,0.3-0.6c0.1-0.2,0.1-0.5,0.2-0.8c0-0.3,0.1-0.6,0.1-0.9s0-0.6,0-1c0,0.1,0,0,0,0l0-0.5c-0.3,0.5-0.7,0.9-1.2,1.1
		c-0.4,0.3-1,0.4-1.6,0.4c-0.5,0-1-0.1-1.4-0.3c-0.4-0.2-0.8-0.4-1-0.7c-0.3-0.3-0.5-0.6-0.7-1s-0.3-0.7-0.4-1.1
		c-0.1-0.4-0.1-0.7-0.1-1.1c0-0.5,0-0.9,0.1-1.3s0.2-0.8,0.4-1.2c0.2-0.4,0.4-0.7,0.7-1s0.6-0.5,1.1-0.7c0.4-0.2,0.9-0.3,1.5-0.3
		c0.5,0,1,0.1,1.4,0.3c0.4,0.2,0.8,0.6,1.2,1l0.1-1.2h0.9v7.9c0,0.3,0,0.6,0,0.8s0,0.5-0.1,0.9c-0.1,0.4-0.1,0.7-0.2,0.9
		c-0.1,0.2-0.2,0.5-0.4,0.8s-0.4,0.5-0.7,0.7c-0.3,0.2-0.6,0.3-1.1,0.4c-0.4,0.1-0.9,0.2-1.5,0.2H121.8z M123.8,168.7
		c0.4,0,0.7-0.1,1-0.2c0.3-0.1,0.6-0.3,0.8-0.5c0.2-0.2,0.4-0.4,0.5-0.7c0.1-0.3,0.2-0.6,0.3-0.8s0.1-0.6,0.1-0.9v-0.9
		c0-0.4,0-0.8-0.1-1.1s-0.3-0.7-0.5-1s-0.5-0.5-0.8-0.7c-0.4-0.2-0.8-0.3-1.2-0.3c-0.4,0-0.7,0.1-1,0.2s-0.6,0.3-0.8,0.6
		c-0.2,0.2-0.4,0.5-0.5,0.9s-0.2,0.7-0.3,1c-0.1,0.3-0.1,0.7-0.1,1.1c0,0.3,0,0.6,0.1,0.9c0,0.3,0.1,0.6,0.3,0.9
		c0.1,0.3,0.3,0.6,0.5,0.8s0.5,0.4,0.8,0.6C123,168.6,123.4,168.7,123.8,168.7z"/>
</g>
<circle class="st2" cx="158.5" cy="164.5" r="8"/>
<g>
	<g>
		<line class="st3" x1="244.4" y1="267.6" x2="171.1" y2="179.6"/>
		<g>
			<polygon class="st2" points="176.4,179.5 176.2,180.5 171.3,179.9 171.1,184.8 170.1,184.7 170.4,178.7 			"/>
		</g>
	</g>
</g>
<circle class="st1" cx="258.5" cy="284.5" r="8"/>
<circle class="st1" cx="258.5" cy="404.5" r="8"/>
<circle class="st1" cx="258.5" cy="524.5" r="8"/>
<g>
	<g>
		<line class="st0" x1="258.5" y1="504.5" x2="258.5" y2="425.6"/>
		<g>
			<polygon class="st1" points="262.6,428.9 261.9,429.6 258.5,426 255.1,429.6 254.4,428.9 258.5,424.5 			"/>
		</g>
	</g>
</g>
<g>
	<g>
		<line class="st0" x1="258.5" y1="384.5" x2="258.5" y2="305.6"/>
		<g>
			<polygon class="st1" points="262.6,308.9 261.9,309.6 258.5,306 255.1,309.6 254.4,308.9 258.5,304.5 			"/>
		</g>
	</g>
</g>
</g>
</svg>
