<?xml version="1.0" encoding="utf-8"?>
<!-- Generator: Adobe Illustrator 19.1.0, SVG Export Plug-In . SVG Version: 6.00 Build 0)  -->
<!DOCTYPE svg PUBLIC "-//W3C//DTD SVG 1.1//EN" "http://www.w3.org/Graphics/SVG/1.1/DTD/svg11.dtd">
<svg version="1.1" xmlns="http://www.w3.org/2000/svg" xmlns:xlink="http://www.w3.org/1999/xlink" x="0px" y="0px"
	 viewBox="0 0 1024 600" style="enable-background:new 0 0 1024 600;" xml:space="preserve">
<style type="text/css">
	.st1{display:inline;fill:#204056;}
	.st2{display:inline;}
	.st3{fill:#FFFFFF;}
	.st4{font-family:'Oxygen-Light';}
	.st5{font-size:21px;}
	.st6{fill:#BCBEC0;}
	.st7{font-family:'OxygenMono-Regular';}
	.st8{font-size:12px;}
	.st9{display:inline;fill:#FFFFFF;}
	.st10{display:inline;fill:none;stroke:#BCBEC0;stroke-miterlimit:10;}
	.st11{fill:none;stroke:#FFFFFF;stroke-miterlimit:10;}
	.st12{fill:none;stroke:#BCBEC0;stroke-miterlimit:10;}
	.st13{fill:none;stroke:#BCBEC0;stroke-linejoin:bevel;stroke-miterlimit:10;}
</style>
<g id="BG" class="st0">
	<rect class="st1" width="1024" height="600"/>
</g>
<g id="CONTENT" class="st0">
	<text transform="matrix(1 0 0 1 142 284)" class="st2"><tspan x="0" y="0" class="st3 st4 st5">工作目录</tspan></text>
	<text transform="matrix(1 0 0 1 142 365)" class="st2"><tspan x="0" y="0" class="st6 st7 st8">对文件进行改动:</tspan><tspan x="0" y="28" class="st6 st7 st8">新增</tspan><tspan x="0" y="44" class="st6 st7 st8">删除</tspan><tspan x="0" y="60" class="st6 st7 st8">修改</tspan></text>
	<g class="st2">
		<path class="st3" d="M219,202v43h-76v-43H219 M159,194h-16c-0.6,0-1,0.4-1,2v50c0-0.4,0.4,0,1,0h76c0.6,0,1-0.4,1,0v-47
			c0-1.6-0.4-2-1-2h-59v-2C160,194.4,159.6,194,159,194L159,194z M143,201v-6h16v3h60v3H143L143,201z"/>
	</g>
	<text transform="matrix(1 0 0 1 432 284)" class="st2"><tspan x="0" y="0" class="st3 st4 st5">暂存区</tspan></text>
	<text transform="matrix(1 0 0 1 432 365)" class="st2"><tspan x="0" y="0" class="st6 st7 st8">把改动‘add’到暂存区</tspan></text>
	<text transform="matrix(1 0 0 1 742 284)" class="st9 st4 st5">仓库</text>
	<g class="st2">
		<text transform="matrix(1 0 0 1 142 174)" class="st6 st7 st8">1</text>
	</g>
	<text transform="matrix(1 0 0 1 742 365)" class="st2"><tspan x="0" y="0" class="st6 st7 st8">把改动‘commit’到仓库</tspan></text>
	<line class="st10" x1="142" y1="334.5" x2="282" y2="334.5"/>
	<line class="st10" x1="432" y1="334.5" x2="572" y2="334.5"/>
	<line class="st10" x1="742" y1="334.5" x2="882" y2="334.5"/>
	<g class="st2">
		<g>
			<line class="st11" x1="271" y1="234.5" x2="369.9" y2="234.5"/>
			<g>
				<polygon class="st3" points="366.6,238.6 365.9,237.9 369.5,234.5 365.9,231.1 366.6,230.4 371,234.5 				"/>
			</g>
		</g>
	</g>
	<g class="st2">
		<g>
			<line class="st11" x1="571" y1="234.5" x2="669.9" y2="234.5"/>
			<g>
				<polygon class="st3" points="666.6,238.6 665.9,237.9 669.5,234.5 665.9,231.1 666.6,230.4 671,234.5 				"/>
			</g>
		</g>
	</g>
	<g class="st2">
		<path class="st3" d="M509,202v43h-76v-43H509 M449,194h-16c-0.6,0-1,0.4-1,2v50c0-0.4,0.4,0,1,0h76c0.6,0,1-0.4,1,0v-47
			c0-1.6-0.4-2-1-2h-59v-2C450,194.4,449.6,194,449,194L449,194z M433,201v-6h16v3h60v3H433L433,201z"/>
	</g>
	<g class="st2">
		<text transform="matrix(1 0 0 1 432 174)" class="st6 st7 st8">2</text>
	</g>
	<g class="st2">
		<path class="st3" d="M819,202v43h-76v-43H819 M759,194h-16c-0.6,0-1,0.4-1,2v50c0-0.4,0.4,0,1,0h76c0.6,0,1-0.4,1,0v-47
			c0-1.6-0.4-2-1-2h-59v-2C760,194.4,759.6,194,759,194L759,194z M743,201v-6h16v3h60v3H743L743,201z"/>
	</g>
	<g class="st2">
		<text transform="matrix(1 0 0 1 742 174)" class="st6 st7 st8">3</text>
	</g>
	<g class="st2">
		<g>
			<path class="st11" d="M170.8,219.9c0.4-0.4,1.5-0.1,2.4,0.8c0.9,0.9,1.2,1.9,0.8,2.4"/>
			
				<ellipse transform="matrix(0.7071 -0.7071 0.7071 0.7071 -107.6852 186.1076)" class="st11" cx="170.8" cy="223" rx="1.1" ry="2.3"/>
			<line class="st11" x1="169.2" y1="221.5" x2="170.8" y2="219.9"/>
			<line class="st11" x1="172.4" y1="224.6" x2="174" y2="223"/>
			<path class="st11" d="M176.8,213.9l-4,4l-0.4,2l1.6,1.6l2-0.4l3.6-3.6l-1.2-2c0.1-0.1,0.2-0.3,0.4-0.4c1.1-1.1,2.2-1.9,3.6-1.5
				C180.8,212.3,178.3,212.4,176.8,213.9z"/>
			
				<rect x="178.3" y="218.9" transform="matrix(-0.7071 0.7071 -0.7071 -0.7071 463.2943 252.0004)" class="st11" width="2.3" height="6.2"/>
			
				<rect x="184.1" y="222.4" transform="matrix(-0.7071 0.7071 -0.7071 -0.7071 478.6583 258.3643)" class="st11" width="3.4" height="11.8"/>
		</g>
		<polyline class="st11" points="184.3,224.4 187.7,221.1 190.8,221.1 193,218.9 193,215.8 193,215.8 190.8,218 188.6,217.9 
			188.6,215.8 190.8,213.6 190.8,213.6 187.7,213.6 185.5,215.8 185.5,218.9 181.7,222.6 		"/>
		<polyline class="st11" points="180.1,224.2 177.5,226.8 174.4,226.8 172.2,229 172.2,232.1 172.2,232.1 174.4,230 176.6,230 
			176.6,232.1 174.4,234.3 174.4,234.3 177.5,234.3 179.7,232.1 179.7,229 181.9,226.8 		"/>
	</g>
	<g class="st2">
		<g>
			<path class="st3" d="M480,213.2v19.5h-18v-19.5H480 M481,212.2h-1h-18h-1v1v19.5v1h1h18h1v-1v-19.5V212.2L481,212.2z"/>
		</g>
		<line class="st11" x1="465" y1="218.5" x2="466.5" y2="218.5"/>
		<line class="st11" x1="468" y1="218.5" x2="477" y2="218.5"/>
		<line class="st11" x1="465" y1="221.5" x2="466.5" y2="221.5"/>
		<line class="st11" x1="468" y1="221.5" x2="477" y2="221.5"/>
		<line class="st11" x1="465" y1="224.5" x2="466.5" y2="224.5"/>
		<line class="st11" x1="468" y1="224.5" x2="477" y2="224.5"/>
		<line class="st11" x1="465" y1="227.5" x2="466.5" y2="227.5"/>
		<line class="st11" x1="468" y1="227.5" x2="477" y2="227.5"/>
	</g>
	<g class="st2">
		<path class="st11" d="M790.8,215.2c0,1.2-3.5,2.2-9.8,2.2s-9.8-1-9.8-2.2s3.5-2.2,9.8-2.2S790.8,214,790.8,215.2z"/>
		<path class="st11" d="M790.8,215.2v4.5c0,1.2-3.5,2.2-9.8,2.2s-9.8-1-9.8-2.2v-4.5"/>
		<path class="st11" d="M790.1,220.5c0.4,0.2,0.7,0.5,0.7,0.8c0,1.2-3.5,2.2-9.8,2.2s-9.8-1-9.8-2.2c0-0.3,0.3-0.6,0.8-0.8"/>
		<path class="st11" d="M790.8,221.2v4.5c0,1.2-3.5,2.2-9.8,2.2s-9.8-1-9.8-2.2v-4.5"/>
		<path class="st11" d="M790.2,226.6c0.3,0.2,0.5,0.4,0.5,0.7c0,1.2-3.5,2.2-9.8,2.2s-9.8-1-9.8-2.2c0-0.3,0.3-0.6,0.8-0.8"/>
		<path class="st11" d="M790.8,227.2v4.5c0,1.2-3.5,2.2-9.8,2.2s-9.8-1-9.8-2.2v-4.5"/>
	</g>
</g>

</svg>
